<svg xmlns="http://www.w3.org/2000/svg" viewBox="0 0 120 120" width="69" height="69">
  <circle cx="60" cy="60" r="45" fill="none" stroke="black" strokeWidth="4" />
  <path d="M15,60 A45,45 0 0 1 60,15 L60,60 Z" fill="#FFDD67" />
  <path d="M60,15 A45,45 0 0 1 105,60 L60,60 Z" fill="#F87060" />
  <path d="M60,60 L105,60 A45,45 0 0 1 60,105 Z" fill="#5BC8AF" />
  <path d="M60,60 L60,105 A45,45 0 0 1 15,60 Z" fill="#1DA1F2" />
  <circle cx="45" cy="50" r="5" fill="#333" />
  <circle cx="75" cy="50" r="5" fill="#333" />
  <path d="M45 70 Q60 85 75 70" stroke="#333" strokeWidth="3" fill="transparent" />
  <circle cx="20" cy="20" r="5" fill="#1DA1F2" />
  <circle cx="100" cy="20" r="5" fill="#FFDD67" />
  <circle cx="110" cy="80" r="5" fill="#F87060" />
  <circle cx="20" cy="100" r="5" fill="#5BC8AF" />
  <circle cx="80" cy="110" r="5" fill="#1DA1F2" />
  <circle cx="10" cy="80" r="5" fill="#FFDD67" />
  <circle cx="50" cy="10" r="5" fill="#5BC8AF" />
  <circle cx="25" cy="60" r="3" fill="#1DA1F2" />
  <circle cx="95" cy="60" r="3" fill="#F87060" />
  <circle cx="45" cy="25" r="3" fill="#FFDD67" />
  <circle cx="75" cy="95" r="3" fill="#5BC8AF" />
</svg>